{
  "accessors": [
    {
      "bufferView": 2,
      "componentType": 5126,
      "count": 25347,
      "max": [
        77.89956665039063,
        102.67081451416016,
        103.94273376464844
      ],
      "min": [
        -41.220855712890625,
        -14.69564437866211,
        -9.698820114135742
      ],
      "type": "VEC3"
    },
    {
      "bufferView": 2,
      "byteOffset": 304164,
      "componentType": 5126,
      "count": 25347,
      "max": [
        0.9997804760932922,
        0.9969867467880249,
        0.9999967217445374
      ],
      "min": [
        -0.9996998310089111,
        -0.9998703598976135,
        -0.9999039769172668
      ],
      "type": "VEC3"
    },
    {
      "bufferView": 1,
      "componentType": 5126,
      "count": 25347,
      "max": [
        0.9955424070358276,
        0.9980457425117493
      ],
      "min": [
        0.0020535613875836134,
        0.46006178855895996
      ],
      "type": "VEC2"
    },
    {
      "bufferView": 0,
      "componentType": 5125,
      "count": 145296,
      "type": "SCALAR"
    }
  ],
  "asset": {
    "extras": {
      "author": "puihung (https://sketchfab.com/Puihung)",
      "license": "CC-BY-4.0 (http://creativecommons.org/licenses/by/4.0/)",
      "source": "https://sketchfab.com/3d-models/baseball-gloves-e7f88026659a46128ee84611015441db",
      "title": "Baseball Gloves"
    },
    "generator": "Sketchfab-12.68.0",
    "version": "2.0"
  },
  "bufferViews": [
    {
      "buffer": 0,
      "byteLength": 581184,
      "name": "floatBufferViews",
      "target": 34963
    },
    {
      "buffer": 0,
      "byteLength": 202776,
      "byteOffset": 581184,
      "byteStride": 8,
      "name": "floatBufferViews",
      "target": 34962
    },
    {
      "buffer": 0,
      "byteLength": 608328,
      "byteOffset": 783960,
      "byteStride": 12,
      "name": "floatBufferViews",
      "target": 34962
    }
  ],
  "buffers": [
    {
      "byteLength": 1392288,
      "uri": "scene.bin"
    }
  ],
  "images": [
    {
      "uri": "textures/Texture_0_baseColor.jpeg"
    }
  ],
  "materials": [
    {
      "doubleSided": true,
      "name": "Texture_0",
      "pbrMetallicRoughness": {
        "baseColorTexture": {
          "index": 0
        },
        "metallicFactor": 0.0,
        "roughnessFactor": 0.6
      }
    }
  ],
  "meshes": [
    {
      "name": "Object_0",
      "primitives": [
        {
          "attributes": {
            "NORMAL": 1,
            "POSITION": 0,
            "TEXCOORD_0": 2
          },
          "indices": 3,
          "material": 0,
          "mode": 4
        }
      ]
    }
  ],
  "nodes": [
    {
      "children": [
        1
      ],
      "matrix": [
        1.0,
        0.0,
        0.0,
        0.0,
        0.0,
        2.220446049250313e-16,
        -1.0,
        0.0,
        0.0,
        1.0,
        2.220446049250313e-16,
        0.0,
        0.0,
        0.0,
        0.0,
        1.0
      ],
      "name": "Sketchfab_model"
    },
    {
      "children": [
        2
      ],
      "name": "baseball gloves.obj.cleaner"
    },
    {
      "mesh": 0,
      "name": "Object_2"
    }
  ],
  "samplers": [
    {
      "magFilter": 9729,
      "minFilter": 9987,
      "wrapS": 10497,
      "wrapT": 10497
    }
  ],
  "scene": 0,
  "scenes": [
    {
      "name": "Sketchfab_Scene",
      "nodes": [
        0
      ]
    }
  ],
  "textures": [
    {
      "sampler": 0,
      "source": 0
    }
  ]
}
